<?xml version="1.0" encoding="UTF-8"?><svg id="Layer_1" xmlns="http://www.w3.org/2000/svg" viewBox="0 0 300 300"><defs><style>.cls-1{fill:#fff;}.cls-2{fill:none;stroke:#fff;stroke-miterlimit:10;stroke-width:4px;}</style></defs><path class="cls-1" d="M84.75,57.14h55.36v19.02h-34.43v37.1h27.01v19.02h-27.01v58.02h-20.92V57.14Z"/><rect class="cls-2" x="10.95" y="9.52" width="279" height="279"/><circle class="cls-1" cx="192.73" cy="89.83" r="31.7"/><circle class="cls-1" cx="192.73" cy="159.58" r="31.7"/><g><path class="cls-1" d="M86.77,211.93h18.45v3.81h-11.48v7.44h9v3.81h-9v11.63h-6.98v-26.69Z"/><path class="cls-1" d="M122.53,211.93h19.03v3.81h-12.05v7.05h9.58v3.81h-9.58v8.2h12.05v3.81h-19.03v-26.69Z"/><path class="cls-1" d="M158.42,232.29v-1.53h6.59v1.83c0,1.91,1.4,2.59,3.62,2.59s3.61-.69,3.61-2.67c0-2.21-1.4-3.62-5.96-6.02-5.83-3.09-7.74-5.26-7.74-8.31,0-4.19,3.62-6.63,10.4-6.63s10.15,2.44,10.15,6.71v1.11h-6.59v-1.37c0-1.91-1.27-2.63-3.49-2.63s-3.49,.72-3.49,2.56c0,1.94,1.46,3.36,6.02,5.76,5.83,3.09,7.67,5.22,7.67,8.54,0,4.35-3.68,6.79-10.53,6.79s-10.27-2.44-10.27-6.71Z"/><path class="cls-1" d="M202.62,215.74h-7.29v-3.81h21.56v3.81h-7.29v22.88h-6.98v-22.88Z"/></g></svg>